:SAMPLES-PER-SECOND 30
:FULLY-SPECIFIED
:DEGREES
384
root  -4.2142 38.4832 -13.9867 174.801 -74.5606 -178.798
RightUpLeg  -23.978 -22.9179 0.668789
RightLeg  29.2948 -3.06196 -2.10736
RightFoot  0.216391 0.694136 -6.83431
RightToes  0.00048216 0.542163 -0.142577
Spine  10.713 -3.93899 12.1169
Spine1  10.8735 -2.74656 0.294585
HEad  5.61461 9.99584 -9.98558
LeftShoulder1  8.97445 -13.3516 -46.4479
LeftArm  -9.25715 13.5944 -24.7129
LeftForeArm  47.879 -77.7234 -59.7603
LeftHand  -0.25398 0.0180481 5.50724
RightShoulder  4.48332 8.30259 32.0314
RightArm  -14.0265 -27.8537 23.2243
RightForeArm  44.9228 77.1333 106.865
RightHand  1.01236 -15.4746 -12.4128
LeftUpLeg  -5.29155 10.9317 6.6652
LeftLeg  61.6597 6.16026 12.7446
LeftFoot  6.06311 0.186264 -1.46559
LeftToes  1.06243e-005 4.65856e-005 -8.18503e-006
385
root  -5.24116 38.9148 -14.6071 175.821 -75.4127 179.881
RightUpLeg  -20.6338 -24.218 -0.313504
RightLeg  28.0334 -2.64702 -1.77683
RightFoot  -1.45472 0.555248 -6.52329
RightToes  0.00048216 0.542163 -0.142577
Spine  11.8321 -3.65897 12.0721
Spine1  10.8432 -2.22703 -0.165594
HEad  5.71278 8.79208 -9.21461
LeftShoulder1  9.02406 -13.4316 -46.485
LeftArm  -9.35106 13.2164 -24.835
LeftForeArm  45.8477 -77.454 -57.6111
LeftHand  -0.25398 0.0180481 5.50724
RightShoulder  4.52269 8.38269 32.107
RightArm  -13.9865 -27.4834 23.1804
RightForeArm  42.8479 77.2341 105.15
RightHand  1.01589 -15.2889 -12.6682
LeftUpLeg  -10.0703 12.2073 5.37292
LeftLeg  63.191 5.09589 11.4835
LeftFoot  3.58048 0.288786 -2.38639
LeftToes  1.06243e-005 4.65856e-005 -8.18503e-006
386
root  -6.29681 39.3018 -15.2034 178.771 -75.1784 177.354
RightUpLeg  -18.2958 -24.8912 -1.06936
RightLeg  26.6762 -2.05099 -1.38412
RightFoot  -2.58764 0.466588 -6.31675
RightToes  0.00048216 0.542163 -0.142577
Spine  11.8088 -2.9658 11.6511
Spine1  10.9871 -1.47178 -0.584256
HEad  6.3594 8.35734 -9.09189
LeftShoulder1  8.96001 -13.3428 -46.3958
LeftArm  -9.8023 13.6632 -24.9967
LeftForeArm  45.8635 -77.4474 -57.5318
LeftHand  -0.25398 0.0180481 5.50724
RightShoulder  4.54942 8.42801 32.1868
RightArm  -13.7214 -26.754 23.2495
RightForeArm  40.8495 77.3543 103.002
RightHand  1.02454 -15.3273 -12.7198
LeftUpLeg  -14.4846 14.5169 3.40406
LeftLeg  61.1847 4.23599 8.89903
LeftFoot  2.11143 0.465084 -4.04029
LeftToes  1.06243e-005 4.65856e-005 -8.18503e-006
387
root  -7.39227 39.6749 -15.7641 179.62 -75.068 176.825
RightUpLeg  -15.2347 -24.9499 -1.81387
RightLeg  24.6047 -2.16425 -0.821703
RightFoot  -3.34696 0.403555 -6.09062
RightToes  0.00048216 0.542163 -0.142577
Spine  11.6112 -2.51619 11.7364
Spine1  10.9691 -0.929876 -1.18798
HEad  7.37489 8.22951 -9.3143
LeftShoulder1  8.8798 -13.2381 -46.2642
LeftArm  -10.1916 14.5721 -24.9977
LeftForeArm  46.6484 -77.5547 -58.3491
LeftHand  -0.25398 0.0180481 5.50724
RightShoulder  4.54461 8.39495 32.2525
RightArm  -13.2612 -26.1858 23.3551
RightForeArm  39.9045 77.4512 101.249
RightHand  1.02244 -15.8102 -12.1507
LeftUpLeg  -17.7027 16.1454 1.65146
LeftLeg  56.235 3.62383 6.33925
LeftFoot  0.880326 0.51225 -4.8365
LeftToes  1.06243e-005 4.65856e-005 -8.18503e-006
388
root  -8.50241 40.0033 -16.2998 179.348 -75.729 176.926
RightUpLeg  -10.7563 -22.1209 -3.52464
RightLeg  21.8816 -5.58549 0.0638994
RightFoot  -4.58011 0.292317 -5.44716
RightToes  0.00048216 0.542163 -0.142577
Spine  11.5812 -2.39533 11.7387
Spine1  10.8925 -0.776435 -1.60394
HEad  8.51122 7.92925 -9.41552
LeftShoulder1  8.8358 -13.1999 -46.1364
LeftArm  -10.3175 15.3967 -24.8676
LeftForeArm  46.6936 -77.572 -58.5405
LeftHand  -0.25398 0.0180481 5.50724
RightShoulder  4.53707 8.34819 32.3397
RightArm  -12.823 -26.1504 23.4856
RightForeArm  39.7852 77.509 100.249
RightHand  0.995651 -16.2644 -11.3991
LeftUpLeg  -19.3802 16.4936 0.207223
LeftLeg  48.7668 2.92626 4.01046
LeftFoot  -0.307838 0.567436 -5.85314
LeftToes  1.06243e-005 4.65856e-005 -8.18503e-006
389
root  -9.62115 40.2014 -16.8231 179.252 -76.8285 176.891
RightUpLeg  -6.48762 -17.3839 -4.97075
RightLeg  19.332 -11.0964 0.888986
RightFoot  -6.40074 0.141536 -4.26909
RightToes  0.00048216 0.542163 -0.142577
Spine  11.2689 -2.29432 11.4304
Spine1  10.8416 -0.808063 -1.61551
HEad  9.42869 7.4243 -9.21493
LeftShoulder1  8.79957 -13.1935 -45.9593
LeftArm  -10.3198 15.982 -24.7795
LeftForeArm  46.2215 -77.5191 -58.1795
LeftHand  -0.25398 0.0180481 5.50724
RightShoulder  4.52975 8.32784 32.3436
RightArm  -12.5437 -26.6517 23.7647
RightForeArm  40.121 77.5209 100.158
RightHand  0.955716 -16.1649 -11.0882
LeftUpLeg  -20.3101 16.1716 -1.08068
LeftLeg  39.7404 2.02988 2.17414
LeftFoot  -0.244959 0.719207 -7.36917
LeftToes  1.06243e-005 4.65856e-005 -8.18503e-006
390
root  -10.7543 40.2874 -17.3178 178.155 -77.7626 178.361
RightUpLeg  -3.38488 -13.52 -5.00189
RightLeg  17.2309 -15.6705 1.32354
RightFoot  -8.11175 0.0314231 -3.0877
RightToes  0.00048216 0.542163 -0.142577
Spine  10.4552 -2.03585 11.6092
Spine1  10.7849 -0.659326 -1.82466
HEad  9.76689 6.86647 -8.88348
LeftShoulder1  8.77009 -13.2031 -45.7733
LeftArm  -10.276 16.3593 -24.7816
LeftForeArm  46.1404 -77.5069 -58.0793
LeftHand  -0.25398 0.0180481 5.50724
RightShoulder  4.50464 8.31778 32.1635
RightArm  -12.4082 -27.5586 24.1563
RightForeArm  41.307 77.4787 101.245
RightHand  0.912044 -15.5529 -11.2317
LeftUpLeg  -21.2943 15.9508 -2.07147
LeftLeg  30.3843 1.05587 1.00174
LeftFoot  0.770554 0.857149 -8.12252
LeftToes  1.06243e-005 4.65856e-005 -8.18503e-006
391
root  -11.8764 40.3127 -17.7627 174.964 -78.4435 -177.907
RightUpLeg  -0.76876 -11.4978 -4.13796
RightLeg  15.3271 -18.2227 1.65855
RightFoot  -9.66841 -0.0341686 -2.12017
RightToes  0.00048216 0.542163 -0.142577
Spine  9.74392 -1.75504 12.4582
Spine1  10.7108 -0.293057 -2.52976
HEad  9.50177 6.36507 -8.59985
LeftShoulder1  8.77363 -13.2379 -45.6938
LeftArm  -10.1597 16.4577 -24.8611
LeftForeArm  46.3581 -77.525 -58.1643
LeftHand  -0.25398 0.0180481 5.50724
RightShoulder  4.49267 8.33459 32.0078
RightArm  -12.3196 -28.4956 24.3045
RightForeArm  42.6292 77.4244 102.494
RightHand  0.864706 -14.8563 -11.4405
LeftUpLeg  -22.3618 16.402 -2.866
LeftLeg  21.5212 -0.345164 0.295661
LeftFoot  1.41435 0.87906 -7.93359
LeftToes  1.06243e-005 4.65856e-005 -8.18503e-006
392
root  -12.9824 40.2585 -18.1781 171.049 -79.1718 -173.788
RightUpLeg  1.97865 -10.8007 -3.38187
RightLeg  13.8769 -19.3401 2.11041
RightFoot  -11.5988 -0.0793584 -0.898352
RightToes  0.00048216 0.542163 -0.142577
Spine  9.67653 -1.62274 12.9181
Spine1  10.6355 -0.0616412 -3.02542
HEad  9.01588 6.05231 -8.31015
LeftShoulder1  8.78426 -13.2638 -45.6779
LeftArm  -10.1184 16.2684 -25.107
LeftForeArm  46.0998 -77.4722 -57.6816
LeftHand  -0.25398 0.0180481 5.50724
RightShoulder  4.54337 8.41659 32.1722
RightArm  -12.2127 -28.7912 24.024
RightForeArm  41.7798 77.4614 101.659
RightHand  0.82837 -14.4045 -11.5244
LeftUpLeg  -23.0328 16.457 -3.2497
LeftLeg  13.5456 -0.467388 -0.487805
LeftFoot  1.40198 0.851938 -7.69812
LeftToes  1.06243e-005 4.65856e-005 -8.18503e-006
393
root  -14.1168 40.0988 -18.6001 167.388 -79.7469 -170.124
RightUpLeg  4.44555 -10.7472 -2.83746
RightLeg  13.529 -19.7782 2.31657
RightFoot  -13.8023 -0.0879608 0.29281
RightToes  0.00048216 0.542163 -0.142577
Spine  9.81435 -1.48153 12.4819
Spine1  10.7168 -0.0521476 -2.77393
HEad  8.66357 6.04062 -7.88522
LeftShoulder1  8.7637 -13.2701 -45.5497
LeftArm  -10.3078 15.9733 -25.49
LeftForeArm  45.073 -77.3079 -56.4071
LeftHand  -0.25398 0.0180481 5.50724
RightShoulder  4.63686 8.5403 32.5579
RightArm  -12.11 -28.1108 23.6758
RightForeArm  38.0958 77.5828 98.2717
RightHand  0.822346 -14.24 -11.6465
LeftUpLeg  -22.7488 11.5755 -0.797656
LeftLeg  6.49464 6.83236 -2.97111
LeftFoot  1.05709 0.840311 -7.7898
LeftToes  1.06243e-005 4.65856e-005 -8.18503e-006
394
root  -15.3293 39.8442 -19.0345 162.738 -79.8739 -166.041
RightUpLeg  7.07306 -10.9165 -2.22461
RightLeg  14.2787 -20.0318 1.9794
RightFoot  -16.0258 -0.0821586 0.684604
RightToes  0.00048216 0.542163 -0.142577
Spine  10.6229 -1.37535 11.7973
Spine1  10.7119 -0.118611 -2.13235
HEad  8.44267 6.28607 -7.33619
LeftShoulder1  8.72765 -13.3102 -45.2432
LeftArm  -10.5274 15.6859 -25.6845
LeftForeArm  43.5996 -77.0853 -54.8938
LeftHand  -0.25398 0.0180481 5.50724
RightShoulder  4.7096 8.64928 32.8113
RightArm  -11.9936 -26.9068 23.6805
RightForeArm  34.1202 77.6572 94.8518
RightHand  0.851483 -14.1502 -12.1268
LeftUpLeg  -21.8858 6.40273 2.46205
LeftLeg  0.38717 16.068 -6.32911
LeftFoot  0.645006 0.860296 -8.22206
LeftToes  1.06243e-005 4.65856e-005 -8.18503e-006
395
root  -16.636 39.5124 -19.4674 157.738 -79.3516 -161.759
RightUpLeg  9.85851 -10.9819 -1.40741
RightLeg  15.2263 -19.8832 1.4205
RightFoot  -18.3766 -0.0689412 0.878775
RightToes  0.00048216 0.542163 -0.142577
Spine  11.5293 -1.193 11.4949
Spine1  10.8494 0.042286 -1.81347
HEad  8.17962 6.63675 -6.74349
LeftShoulder1  8.68706 -13.3807 -44.8282
LeftArm  -10.4676 15.2536 -25.4622
LeftForeArm  41.9789 -76.8622 -53.6053
LeftHand  -0.25398 0.0180481 5.50724
RightShoulder  4.74309 8.7311 32.8258
RightArm  -11.7044 -25.8127 24.0083
RightForeArm  31.851 77.672 93.1376
RightHand  0.8811 -13.7907 -13.0006
LeftUpLeg  -21.636 5.34246 4.20015
LeftLeg  -3.55025 21.1508 -8.48978
LeftFoot  0.371017 0.89113 -8.69999
LeftToes  1.06243e-005 4.65856e-005 -8.18503e-006
396
root  -18.0142 39.104 -19.8865 154.206 -78.6234 -158.548
RightUpLeg  12.5039 -11.2556 -0.800214
RightLeg  15.887 -18.8565 1.05986
RightFoot  -20.8515 0.0349415 2.09526
RightToes  0.00048216 0.542163 -0.142577
Spine  11.9442 -0.958682 11.3677
Spine1  11.3141 0.374017 -1.99485
HEad  7.8449 6.94131 -6.09306
LeftShoulder1  8.61003 -13.4024 -44.3527
LeftArm  -10.2301 14.5096 -25.069
LeftForeArm  40.2804 -76.6253 -52.3537
LeftHand  -0.25398 0.0180481 5.50724
RightShoulder  4.76385 8.80469 32.7627
RightArm  -11.1056 -24.956 24.4135
RightForeArm  29.6944 77.6831 91.1848
RightHand  0.849083 -13.0225 -13.7407
LeftUpLeg  -22.5195 5.95005 5.00304
LeftLeg  -4.80608 23.7074 -8.91412
LeftFoot  -0.688078 0.844714 -9.00554
LeftToes  1.06243e-005 4.65856e-005 -8.18503e-006
397
root  -19.4698 38.6398 -20.2835 152.598 -77.876 -156.967
RightUpLeg  14.8949 -12.4988 -0.90495
RightLeg  16.8203 -16.7579 0.621226
RightFoot  -23.0356 0.205109 3.54776
RightToes  0.00048216 0.542163 -0.142577
Spine  12.2319 -0.71649 11.1529
Spine1  11.8519 0.819925 -2.55279
HEad  7.52696 7.12334 -5.33722
LeftShoulder1  8.4955 -13.381 -43.791
LeftArm  -10.1807 13.6412 -24.9177
LeftForeArm  38.6879 -76.3497 -50.8653
LeftHand  -0.25398 0.0180481 5.50724
RightShoulder  4.80171 8.90353 32.7596
RightArm  -10.2496 -24.2348 24.7226
RightForeArm  25.7455 77.6741 86.9407
RightHand  0.750121 -12.1607 -13.7503
LeftUpLeg  -22.9671 6.02606 5.61712
LeftLeg  -5.8787 25.695 -8.93645
LeftFoot  -2.77984 0.716931 -9.33739
LeftToes  1.06243e-005 4.65856e-005 -8.18503e-006
398
root  -21.0149 38.1665 -20.648 154.019 -76.6301 -158.176
RightUpLeg  16.7761 -15.0771 -2.06008
RightLeg  18.5118 -13.0678 -0.414818
RightFoot  -24.892 0.316905 4.09658
RightToes  0.00048216 0.542163 -0.142577
Spine  12.715 -0.283137 10.6892
Spine1  12.2944 1.63962 -3.42185
HEad  7.18319 7.33146 -4.56335
LeftShoulder1  8.3804 -13.3939 -43.129
LeftArm  -10.4022 13.0305 -25.0843
LeftForeArm  37.6032 -76.0987 -49.4833
LeftHand  -0.25398 0.0180481 5.50724
RightShoulder  4.89603 9.103 32.8948
RightArm  -9.27012 -23.7247 24.7279
RightForeArm  21.069 77.5784 81.7737
RightHand  0.656335 -11.6484 -13.15
LeftUpLeg  -22.8579 6.26922 6.05508
LeftLeg  -6.27475 27.0598 -8.87988
LeftFoot  -3.82598 0.64284 -9.24255
LeftToes  1.06243e-005 4.65856e-005 -8.18503e-006
